<?xml version="1.0" encoding="UTF-8" standalone="no"?><!DOCTYPE svg PUBLIC "-//W3C//DTD SVG 1.1//EN" "http://www.w3.org/Graphics/SVG/1.1/DTD/svg11.dtd"><svg width="100%" height="100%" viewBox="0 0 100 100" version="1.1" xmlns="http://www.w3.org/2000/svg" xmlns:xlink="http://www.w3.org/1999/xlink" xml:space="preserve" xmlns:serif="http://www.serif.com/" style="fill-rule:evenodd;clip-rule:evenodd;stroke-linejoin:round;stroke-miterlimit:1.41421;"><rect id="github" x="0" y="0" width="100" height="100" style="fill:none;"/><clipPath id="_clip1"><rect x="0" y="0" width="100" height="100"/></clipPath><g clip-path="url(#_clip1)"><path d="M34.3,98.762l0,0l0,-14.982c-8.61,4.148 -18.518,-0.673 -21.023,-6.246c-2.11,-4.693 -3.391,-8.139 -9.209,-11.761c-4.308,-2.683 1.461,-4.077 5.155,-2.28c3.519,1.713 6.88,6.337 10.026,9.938c3.145,3.602 7.75,4.058 15.229,1.675l0,0c0.24,-2.567 0.718,-5.01 1.396,-7.269c-15.575,-4.683 -26.651,-16.568 -26.651,-30.475c0,-6.616 2.506,-12.774 6.811,-17.916c-1.861,-7.456 -1.31,-17.557 1.483,-19.121c2.6,-1.455 11.328,2.167 17.171,6.934c4.903,-1.613 10.282,-2.504 15.924,-2.504c5.662,0 11.059,0.897 15.976,2.521c5.844,-4.775 14.588,-8.407 17.192,-6.951c2.801,1.568 3.347,11.726 1.467,19.187c4.27,5.13 6.754,11.263 6.754,17.85c0,14.123 -11.423,26.162 -27.381,30.689c0.969,3.306 1.511,6.999 1.511,10.894l0,19.859l0,0c-0.039,3.708 -7.156,6.714 -15.916,6.714c-8.784,0 -15.915,-3.022 -15.915,-6.745l0,-0.011Z" style="fill:#fff;"/></g></svg>