<?xml version="1.0" encoding="UTF-8" standalone="no"?><!DOCTYPE svg PUBLIC "-//W3C//DTD SVG 1.1//EN" "http://www.w3.org/Graphics/SVG/1.1/DTD/svg11.dtd"><svg width="100%" height="100%" viewBox="0 0 100 100" version="1.1" xmlns="http://www.w3.org/2000/svg" xmlns:xlink="http://www.w3.org/1999/xlink" xml:space="preserve" xmlns:serif="http://www.serif.com/" style="fill-rule:evenodd;clip-rule:evenodd;stroke-linejoin:round;stroke-miterlimit:1.41421;"><rect id="linkedin" x="0" y="0" width="100" height="100" style="fill:none;"/><clipPath id="_clip1"><rect x="0" y="0" width="100" height="100"/></clipPath><g clip-path="url(#_clip1)"><g><path d="M58.099,100l-21.057,0l0,-63.195l21.057,0l0,7.521c4.135,-5.447 11.039,-9.018 18.851,-9.018c11.866,0 21.637,8.239 22.79,18.775l0.114,0l0,45.917l-21.058,0l0,-36.103c0,-6.433 -4.637,-11.657 -10.348,-11.657c-5.712,0 -10.349,5.224 -10.349,11.657l0,36.103Zm-34.736,-63.195l0,63.195l-21.057,0l0,-63.195l21.057,0Zm-10.528,-36.805c7.003,0 12.688,5.685 12.688,12.688c0,7.003 -5.685,12.689 -12.688,12.689c-7.003,0 -12.689,-5.686 -12.689,-12.689c0,-7.003 5.686,-12.688 12.689,-12.688Z" style="fill:#fff;"/></g></g></svg>