<?xml version="1.0" encoding="UTF-8" standalone="no"?><!DOCTYPE svg PUBLIC "-//W3C//DTD SVG 1.1//EN" "http://www.w3.org/Graphics/SVG/1.1/DTD/svg11.dtd"><svg width="100%" height="100%" viewBox="0 0 100 100" version="1.1" xmlns="http://www.w3.org/2000/svg" xmlns:xlink="http://www.w3.org/1999/xlink" xml:space="preserve" xmlns:serif="http://www.serif.com/" style="fill-rule:evenodd;clip-rule:evenodd;stroke-linejoin:round;stroke-miterlimit:1.41421;"><rect id="gitlab" x="0" y="0" width="100" height="100" style="fill:none;"/><clipPath id="_clip1"><rect x="0" y="0" width="100" height="100"/></clipPath><g clip-path="url(#_clip1)"><g><path d="M2.963,62.066c-2.57,-1.859 -3.61,-5.188 -2.555,-8.179c2.029,-5.755 5.069,-14.378 5.069,-14.378l11.497,-34.331c0.254,-0.757 0.964,-1.268 1.763,-1.268c0.799,0 1.508,0.511 1.762,1.268l11.497,34.331l36.008,0l11.497,-34.331c0.254,-0.757 0.963,-1.268 1.762,-1.268c0.799,0 1.509,0.511 1.763,1.268l11.497,34.331c0,0 3.04,8.623 5.069,14.378c1.055,2.991 0.015,6.32 -2.555,8.179l-47.037,34.024l-47.037,-34.024Z" style="fill:#fff;"/></g></g></svg>