<?xml version="1.0" encoding="UTF-8" standalone="no"?><!DOCTYPE svg PUBLIC "-//W3C//DTD SVG 1.1//EN" "http://www.w3.org/Graphics/SVG/1.1/DTD/svg11.dtd"><svg width="100%" height="100%" viewBox="0 0 82 82" version="1.1" xmlns="http://www.w3.org/2000/svg" xmlns:xlink="http://www.w3.org/1999/xlink" xml:space="preserve" xmlns:serif="http://www.serif.com/" style="fill-rule:evenodd;clip-rule:evenodd;stroke-linecap:round;stroke-linejoin:round;stroke-miterlimit:1.5;"><path d="M40.882,33.691c0,-6.623 -5.377,-12 -12,-12l-25.182,0c-0.662,0 -1.2,0.538 -1.2,1.2l0,25.182c0,6.623 5.377,12 12,12l26.382,0l0,-26.382Z" style="fill:none;stroke:#570052;stroke-width:5px;"/><path d="M40.882,14.5c0,-6.623 5.377,-12 12,-12l25.182,0c0.662,0 1.2,0.538 1.2,1.2l0,25.182c0,6.623 -5.377,12 -12,12l-26.382,0l0,-26.382Z" style="fill:none;stroke:#570052;stroke-width:5px;"/><path d="M40.882,35.42l0,43.844" style="fill:none;stroke:#570052;stroke-width:5px;"/><path d="M27.317,46.672l-11.252,-11.252" style="fill:none;stroke:#570052;stroke-width:5px;"/><path d="M54.447,27.317l11.252,-11.252" style="fill:none;stroke:#570052;stroke-width:5px;"/></svg>