<?xml version="1.0" encoding="UTF-8" standalone="no"?><!DOCTYPE svg PUBLIC "-//W3C//DTD SVG 1.1//EN" "http://www.w3.org/Graphics/SVG/1.1/DTD/svg11.dtd"><svg width="100%" height="100%" viewBox="0 0 120 120" version="1.1" xmlns="http://www.w3.org/2000/svg" xmlns:xlink="http://www.w3.org/1999/xlink" xml:space="preserve" xmlns:serif="http://www.serif.com/" style="fill-rule:evenodd;clip-rule:evenodd;stroke-linecap:round;stroke-linejoin:round;stroke-miterlimit:1.5;"><g id="SVG-Logo" serif:id="SVG Logo"><g id="Outline"><path d="M56.88,57.791c0,-6.623 -5.377,-12 -12,-12l-25.182,0c-0.662,0 -1.2,0.537 -1.2,1.2l0,25.181c0,6.623 5.377,12 12,12l26.382,0l0,-26.381Z" style="fill:none;stroke:#570052;stroke-width:5px;"/><path d="M56.88,38.6c0,-6.623 5.377,-12 12,-12l25.182,0c0.662,0 1.2,0.537 1.2,1.2l0,25.181c0,6.623 -5.377,12 -12,12l-26.382,0l0,-26.381Z" style="fill:none;stroke:#570052;stroke-width:5px;"/><path d="M56.88,59.52l0,43.843" style="fill:none;stroke:#570052;stroke-width:5px;"/></g><g id="Petal-Lines" serif:id="Petal Lines"><path d="M43.315,70.772l-11.252,-11.252" style="fill:none;stroke:#570052;stroke-width:5px;"/><path d="M70.445,51.417l11.252,-11.252" style="fill:none;stroke:#570052;stroke-width:5px;"/></g></g><g id="SVG"><g id="Outline1" serif:id="Outline"></g><g id="Petal-Lines1" serif:id="Petal Lines"></g></g></svg>